# Tiled2Unity generated file. Do not modify by hand.
# Wavefront file for 'Test-B_mesh_0003.obj'

# Vertices (Count = 16)
v -288 -144 0
v -336 -144 0
v -336 -96 0
v -288 -96 0
v -336 -144 0
v -384 -144 0
v -384 -96 0
v -336 -96 0
v -384 -144 0
v -432 -144 0
v -432 -96 0
v -384 -96 0
v -432 -144 0
v -480 -144 0
v -480 -96 0
v -432 -96 0

# Texture cooridinates (Count = 10)
vt 0.4897959 0.6875
vt 0.6122449 0.6875
vt 0.6122449 0.75
vt 0.4897959 0.75
vt 0.7346939 0.6875
vt 0.7346939 0.75
vt 0.8571429 0.6875
vt 0.8571429 0.75
vt 0.9795918 0.6875
vt 0.9795918 0.75

# Normal
vn 0 0 -1

# Mesh description
g Test-B_mesh_0003

# Faces
f 1/1/1 2/2/1 3/3/1 4/4/1
f 5/2/1 6/5/1 7/6/1 8/3/1
f 9/5/1 10/7/1 11/8/1 12/6/1
f 13/7/1 14/9/1 15/10/1 16/8/1

